# AST/ASF file generated using VICON BodyLanguage
# -----------------------------------------------
:version 1.10
:name VICON
:units
  mass 1.0
  length 0.45
  angle deg
:documentation
   .ast/.asf automatically generated from VICON data using
   VICON BodyBuilder and BodyLanguage model FoxedUp or BRILLIANT.MOD
:root
   order TX TY TZ RX RY RZ
   axis XYZ
   position 0 0 0  
   orientation 0 0 0 
:bonedata
  begin
     id 1 
     name lhipjoint
     direction 0.677091 -0.635792 0.370561 
     length 2.74323 
     axis 0 0 0  XYZ
  end
  begin
     id 2 
     name lfemur
     direction 0.34202 -0.939693 0  
     length 7.44995  
     axis 0 0 20  XYZ
    dof rx ry rz
    limits (-160.0 20.0)
           (-70.0 70.0)
           (-60.0 70.0)
  end
  begin
     id 3 
     name ltibia
     direction 0.34202 -0.939693 0   
     length 7.34467   
     axis 0 0 20   XYZ
    dof rx
    limits (-10.0 170.0)
  end
  begin
     id 4 
     name lfoot
     direction 0.101953 -0.280114 0.954537   
     length 1.72105   
     axis -90 7.62852e-016 20   XYZ
    dof rx rz
    limits (-45.0 90.0)
           (-70.0 20.0)
  end
  begin
     id 5 
     name ltoes
     direction 1.53537e-011 -4.21915e-011 1   
     length 0.865872   
     axis -90 7.62852e-016 20   XYZ
    dof rx
    limits (-90.0 20.0)
  end
  begin
     id 6 
     name rhipjoint
     direction -0.695735 -0.620586 0.361699   
     length 2.81045  
     axis 0 0 0  XYZ 
  end
  begin
     id 7 
     name rfemur
     direction -0.34202 -0.939693 0   
     length 7.29387   
     axis 0 0 -20   XYZ
    dof rx ry rz
    limits (-160.0 20.0)
           (-70.0 70.0)
           (-70.0 60.0)
  end
  begin
     id 8 
     name rtibia
     direction -0.34202 -0.939693 0   
     length 7.44935   
     axis 0 0 -20   XYZ
    dof rx
    limits (-10.0 170.0)
 end
 begin
     id 9 
     name rfoot
     direction -0.104163 -0.286184 0.952496   
     length 1.77731  
     axis -90 -7.62852e-016 -20   XYZ
    dof rx rz
    limits (-45.0 90.0)
           (-20.0 70.0)
  end
  begin
     id 10 
     name rtoes
     direction -1.5355e-011 -4.21888e-011 1   
     length 0.892424   
     axis -90 -7.62852e-016 -20   XYZ
    dof rx
    limits (-90.0 20.0)
  end
  begin
     id 11 
     name lowerback
     direction 0.0100202 0.997226 -0.0737589   
     length 2.16892   
     axis 0 0 0   XYZ
    dof rx ry rz
    limits (-20.0 45.0)
           (-30.0 30.0)
           (-30.0 30.0)
  end
  begin
     id 12 
     name upperback
     direction 0.00432398 0.999988 -0.00215019   
     length 2.17326   
     axis 0 0 0   XYZ
    dof rx ry rz
    limits (-20.0 45.0)
           (-30.0 30.0)
           (-30.0 30.0)
  end
  begin
     id 13 
     name thorax
     direction -0.00195047 0.999485 0.0320434   
     length 2.18139   
     axis 0 0 0   XYZ
    dof rx ry rz
    limits (-20.0 45.0)
           (-30.0 30.0)
           (-30.0 30.0)
  end
  begin
     id 14 
     name lowerneck
     direction 0.00782762 0.986241 0.165128   
     length 1.88415   
     axis 0 0 0   XYZ
    dof rx ry rz
    limits (-20.0 45.0)
           (-30.0 30.0)
           (-30.0 30.0)
  end
  begin
     id 15 
     name upperneck
     direction 0.00988667 0.981098 -0.193258   
     length 1.9242   
     axis 0 0 0   XYZ
    dof rx ry rz
    limits (-20.0 45.0)
           (-30.0 30.0)
           (-30.0 30.0)
  end
  begin
     id 16
     name head
     direction 0.00252199 0.996513 -0.0833958  
     length 1.93887  
     axis 0 0 0   XYZ
    dof rx ry rz
    limits (-20.0 45.0)
           (-30.0 30.0)
           (-30.0 30.0)
  end
  begin
     id 17 
     name lclavicle
     direction 0.929492 0.368193 -0.0218667  
     length 3.5955  
     axis 0 0 0   XYZ
    dof ry rz
    limits (-20.0 10.0)
           (0.0 20.0)
  end
  begin
     id 18 
     name lhumerus
     direction 1 -4.48972e-011 1.41911e-027   
     length 5.2795   
     axis 180 -30 -90   XYZ
    dof rx ry rz
    limits (-60.0 90.0)
           (-90.0 90.0)
           (-90.0 90.0)
  end
  begin
     id 19
     name lradius
     direction 1 -4.48963e-011 7.05772e-027   
     length 3.53504   
     axis 180 -30 -90   XYZ
    dof rx
    limits (-10.0 170.0)
  end
  begin
     id 20
     name lwrist
     direction 1 -4.48957e-011 9.54866e-027   
     length 1.76752   
     axis -7.69462e-015 90 90   XYZ
    dof ry
    limits (-180.0 0.0)
 end
  begin
     id 21 
     name lhand
     direction 1 -4.48979e-011 1.90973e-026   
     length 0.667948   
     axis -1.21857e-014 90 90   XYZ
    dof rx rz
    limits (-90.0 90.0)
           (-45.0 45.0)
  end
  begin
     id 22 
     name lfingers
     direction 1 -4.48987e-011 3.81946e-026   
     length 0.538517   
     axis -2.43714e-014 90 90   XYZ
    dof rx
    limits (0.0 90.0)
  end
  begin
     id 23
     name lthumb
     direction 0.707107 -6.34962e-011 0.707107   
     length 0.773206   
     axis -90 45 2.85299e-015   XYZ
    dof rx rz
    limits (-45.0 45.0)
           (-45.0 45.0)
  end
  begin
     id 24 
     name rclavicle
     direction -0.898763 0.414256 -0.143584   
     length 3.5176  
     axis 0 0 0   XYZ 
    dof ry rz
    limits (-10.0 20.0)
           (-20.0 0.0)
  end
  begin
     id 25 
     name rhumerus
     direction -1 -4.48971e-011 1.129e-027  
     length 5.25035   
     axis 180 30 90   XYZ
    dof rx ry rz
    limits (-90.0 60.0)
           (-90.0 90.0)
           (-90.0 90.0)
  end
  begin
     id 26 
     name rradius
     direction -1 -4.48955e-011 6.34664e-027   
     length 3.58884   
     axis 180 30 90   XYZ
    dof rx
    limits (-10.0 170.0)
  end
  begin
     id 27 
     name rwrist
     direction -1 -4.48966e-011 9.54866e-027   
     length 1.79442   
     axis -7.69462e-015 -90 -90   XYZ
    dof ry
    limits (-180.0 0.0)
  end
  begin
     id 28
     name rhand
     direction -1 -4.48973e-011 1.90973e-026   
     length 0.779235   
     axis -1.21857e-014 -90 -90   XYZ
    dof rx rz
    limits (-90.0 90.0)
           (-45.0 45.0)
  end
  begin
     id 29
     name rfingers
     direction -1 -4.48984e-011 3.81946e-026   
     length 0.62824   
     axis -2.43714e-014 -90 -90   XYZ
    dof rx
    limits (0.0 90.0)
  end
  begin
     id 30
     name rthumb
     direction -0.707107 -6.34968e-011 0.707107   
     length 0.90203   
     axis -90 -45 -2.85299e-015   XYZ
    dof rx rz
    limits (-45.0 45.0)
           (-45.0 45.0)
  end
:hierarchy
  begin
    root lhipjoint rhipjoint lowerback
    lhipjoint lfemur
    lfemur ltibia
    ltibia lfoot
    lfoot ltoes
    rhipjoint rfemur
    rfemur rtibia
    rtibia rfoot
    rfoot rtoes
    lowerback upperback
    upperback thorax
    thorax lowerneck lclavicle rclavicle
    lowerneck upperneck
    upperneck head
    lclavicle lhumerus
    lhumerus lradius
    lradius lwrist
    lwrist lhand lthumb
    lhand lfingers
    rclavicle rhumerus
    rhumerus rradius
    rradius rwrist
    rwrist rhand rthumb
    rhand rfingers
  end

#!OML:ASF I:\Random Stuff\random\construction\7_22_03\Session 2\subj1.ASF
:FULLY-SPECIFIED
:DEGREES
46
root -3.98522 17.8175 0.935465 -94.8836 87.0144 -100.787
lowerback 3.43915 1.08681 2.78235
upperback -3.47463 1.6754 0.435209
thorax -5.46563 0.742803 -1.24415
lowerneck -18.596 0.681731 0.672928
upperneck 32.0783 0.989719 1.63679
head 14.0559 1.02819 0.785774
rclavicle 4.3919e-015 3.27995e-015
rhumerus -36.9033 -4.95002 -80.0666
rradius 28.9087
rwrist -3.17321
rhand -19.267 18.4659
rfingers 7.12502
rthumb 7.04743 -11.3968
lclavicle 4.3919e-015 3.27995e-015
lhumerus -36.9143 -6.42072 90.1613
lradius 33.4297
lwrist 28.3874
lhand -20.313 56.9426
lfingers 7.12502
lthumb 6.03761 86.8366
rfemur 0.853486 5.84537 20.6154
rtibia 2.38542e-015
rfoot -3.03638 -21.0489
rtoes -5.83151
lfemur -8.7465 -20.8883 -11.4685
ltibia 15.2479
lfoot -11.3767 21.6344
ltoes -30.4592
47
root -3.98298 17.8176 0.931713 -95.9405 87.0176 -101.874
lowerback 3.50745 1.05566 2.81065
upperback -3.59134 1.64183 0.420468
thorax -5.62787 0.72202 -1.27585
lowerneck -18.409 0.710242 0.665331
upperneck 32.0657 1.03239 1.67133
head 14.0085 1.05309 0.806711
rclavicle -3.52781e-014 -1.18277e-014
rhumerus -37.0152 -4.85728 -80.1497
rradius 28.776
rwrist -3.17253
rhand -19.1387 18.2996
rfingers 7.12502
rthumb 7.17129 -11.5589
lclavicle -3.52781e-014 -1.18277e-014
lhumerus -37.0328 -6.26998 90.0775
lradius 33.2428
lwrist 28.2937
lhand -20.4555 57.0615
lfingers 7.12502
lthumb 5.90009 86.9594
rfemur 0.837397 5.78922 20.5846
rtibia 3.18055e-015
rfoot -3.0664 -21.0184
rtoes -5.89852
lfemur -8.77634 -21.0765 -11.4814
ltibia 15.2382
lfoot -11.3761 21.7479
ltoes -30.5249
48
root -3.9803 17.8179 0.928397 -95.7879 87.0438 -101.747
lowerback 3.56839 1.04505 2.80243
upperback -3.71065 1.63367 0.410412
thorax -5.78885 0.715444 -1.28411
lowerneck -18.2078 0.726095 0.603109
upperneck 32.0624 1.06143 1.74972
head 13.9613 1.07207 0.852388
rclavicle -1.42699e-014 4.07509e-015
rhumerus -37.1594 -4.71735 -80.2392
rradius 28.6386
rwrist -3.19607
rhand -19.0353 18.2659
rfingers 7.12502
rthumb 7.27106 -11.5892
lclavicle -1.42699e-014 4.07509e-015
lhumerus -37.138 -6.13254 90.0106
lradius 32.9606
lwrist 28.2836
lhand -20.6043 57.1587
lfingers 7.12502
lthumb 5.7564 87.0605
rfemur 0.817949 5.79825 20.5405
rtibia 7.95139e-016
rfoot -3.13139 -21.0013
rtoes -5.69337
lfemur -8.72536 -21.1357 -11.5178
ltibia 15.1017
lfoot -11.3056 21.8061
ltoes -30.7965
49
root -3.97272 17.8185 0.933138 -94.3286 87.1611 -100.317
lowerback 3.55118 1.06646 2.60611
upperback -3.80812 1.65364 0.41413
thorax -5.88574 0.732353 -1.17303
lowerneck -18.0201 0.728066 0.427351
upperneck 32.0247 1.09953 1.84478
head 13.9008 1.08203 0.925056
rclavicle 9.23165e-015 8.94531e-015
rhumerus -37.2795 -4.48782 -80.3325
rradius 28.4305
rwrist -3.2638
rhand -19.0542 18.3542
rfingers 7.12502
rthumb 7.25279 -11.5015
lclavicle 9.23165e-015 8.94531e-015
lhumerus -37.2604 -6.07896 89.9925
lradius 32.7081
lwrist 28.4597
lhand -20.7667 57.4467
lfingers 7.12502
lthumb 5.5996 87.3527
rfemur 0.797986 5.88129 20.4343
rtibia -6.36111e-015
rfoot -3.22349 -20.9829
rtoes -5.164
lfemur -8.68645 -21.1829 -11.619
ltibia 15.0413
lfoot -11.3201 21.9191
ltoes -30.8005
50
root -3.96058 17.819 0.951791 -92.4561 87.4681 -98.5155
lowerback 3.40482 1.09264 2.0181
upperback -3.86404 1.65002 0.420483
thorax -5.87523 0.756405 -0.834509
lowerneck -17.9003 0.710063 0.289931
upperneck 31.9567 1.13 1.8167
head 13.8432 1.07381 0.940023
rclavicle -4.44354e-015 -1.0138e-014
rhumerus -37.2999 -4.15761 -80.4603
rradius 28.1979
rwrist -3.33468
rhand -19.0997 18.3593
rfingers 7.12502
rthumb 7.20887 -11.498
lclavicle -4.44354e-015 -1.0138e-014
lhumerus -37.3065 -5.86376 89.896
lradius 32.4218
lwrist 28.438
lhand -20.6795 57.5942
lfingers 7.12502
lthumb 5.68375 87.4979
rfemur 0.740369 5.98531 20.1529
rtibia -5.56597e-015
rfoot -3.40099 -20.9528
rtoes -4.16615
lfemur -8.71099 -21.2638 -11.8681
ltibia 15.0151
lfoot -11.3857 22.0897
ltoes -30.502
51
root -3.968 17.8174 0.928433 -93.2958 87.2653 -99.2376
lowerback 3.70559 1.05596 2.5501
upperback -3.8941 1.64456 0.421805
thorax -6.06726 0.727589 -1.13779
lowerneck -17.8161 0.672208 0.284659
upperneck 31.8441 1.11833 1.67837
head 13.7766 1.04631 0.880221
rclavicle -6.29355e-016 -2.73329e-015
rhumerus -37.2925 -3.81498 -80.6084
rradius 28.0679
rwrist -3.42371
rhand -19.0184 18.161
rfingers 7.12502
rthumb 7.28739 -11.6936
lclavicle -6.29355e-016 -2.73329e-015
lhumerus -37.2904 -5.64811 89.7682
lradius 32.0733
lwrist 28.2255
lhand -20.4097 57.5337
lfingers 7.12502
lthumb 5.94432 87.4303
rfemur 0.846431 5.9395 20.315
rtibia -2.38542e-015
rfoot -3.20993 -20.9937
rtoes -5.25421
lfemur -8.56948 -21.1739 -11.7782
ltibia 15.0016
lfoot -11.3866 21.9692
ltoes -30.4
52
root -3.9697 17.8169 0.922132 -93.6089 87.2019 -99.5064
lowerback 3.86771 1.05507 2.7234
upperback -3.92692 1.66059 0.408562
thorax -6.19023 0.72533 -1.25424
lowerneck -17.7361 0.597547 0.266277
upperneck 31.726 1.02597 1.62837
head 13.7089 0.994696 0.844624
rclavicle -7.138e-015 -3.77691e-015
rhumerus -37.3238 -3.51716 -80.7662
rradius 27.9826
rwrist -3.45144
rhand -18.9701 18.0778
rfingers 7.12502
rthumb 7.33399 -11.7751
lclavicle -7.138e-015 -3.77691e-015
lhumerus -37.3161 -5.67141 89.698
lradius 31.7966
lwrist 28.125
lhand -20.2852 57.3991
lfingers 7.12502
lthumb 6.06451 87.2923
rfemur 0.895296 5.9221 20.3697
rtibia -7.95139e-016
rfoot -3.19485 -20.9999
rtoes -5.23392
lfemur -8.52527 -21.0835 -11.7491
ltibia 14.9996
lfoot -11.3137 21.8628
ltoes -30.7214
53
root -3.96924 17.8175 0.92328 -94.0684 87.1983 -99.9624
lowerback 3.96082 1.04276 2.72113
upperback -3.95345 1.64761 0.402936
thorax -6.27239 0.717383 -1.26025
lowerneck -17.685 0.532862 0.1677
upperneck 31.6255 0.931504 1.70603
head 13.6541 0.950285 0.874126
rclavicle 5.65255e-015 4.96962e-017
rhumerus -37.3277 -3.22178 -80.9213
rradius 27.8788
rwrist -3.30399
rhand -19.0066 18.3281
rfingers 7.12502
rthumb 7.2988 -11.526
lclavicle 5.65255e-015 4.96962e-017
lhumerus -37.3427 -5.66394 89.6159
lradius 31.606
lwrist 28.059
lhand -20.3086 57.098
lfingers 7.12502
lthumb 6.04184 86.9919
rfemur 0.903256 5.89986 20.3771
rtibia -1.19271e-014
rfoot -3.1885 -20.9715
rtoes -5.02979
lfemur -8.58417 -20.9681 -11.7382
ltibia 15.0952
lfoot -11.2628 21.704
ltoes -31.0532
54
root -3.96885 17.8179 0.923038 -94.4751 87.2114 -100.361
lowerback 4.04003 1.02604 2.68623
upperback -3.94182 1.62562 0.418728
thorax -6.30787 0.707769 -1.22397
lowerneck -17.6981 0.533388 0.0518195
upperneck 31.4719 0.943526 1.75122
head 13.5894 0.943036 0.910651
rclavicle -1.068e-014 -7.85199e-015
rhumerus -37.2597 -2.93191 -81.0342
rradius 27.8385
rwrist -3.10502
rhand -18.9686 18.4826
rfingers 7.12502
rthumb 7.33546 -11.3703
lclavicle -1.068e-014 -7.85199e-015
lhumerus -37.3134 -5.58399 89.5679
lradius 31.4975
lwrist 28.0207
lhand -20.3539 56.9458
lfingers 7.12502
lthumb 5.99815 86.8409
rfemur 0.911207 5.88134 20.3624
rtibia -1.11319e-014
rfoot -3.13711 -20.9597
rtoes -5.34131
lfemur -8.5888 -20.7495 -11.7532
ltibia 15.0927
lfoot -11.2889 21.4508
ltoes -30.8911
55
root -3.96843 17.8179 0.922417 -94.7396 87.2186 -100.602
lowerback 4.14026 1.02579 2.65
upperback -3.91797 1.62652 0.447879
thorax -6.34202 0.70988 -1.17543
lowerneck -17.7842 0.530725 -0.0675783
upperneck 31.3796 0.970422 1.74666
head 13.5672 0.935769 0.932448
rclavicle -1.47044e-014 -1.14798e-014
rhumerus -37.2017 -2.68225 -81.0999
rradius 27.8642
rwrist -2.97905
rhand -19.0161 18.4746
rfingers 7.12502
rthumb 7.28963 -11.3799
lclavicle -1.47044e-014 -1.14798e-014
lhumerus -37.2633 -5.54897 89.5661
lradius 31.4226
lwrist 28.0116
lhand -20.46 57.2599
lfingers 7.12502
lthumb 5.89575 87.1579
rfemur 0.932984 5.87006 20.3564
rtibia 6.36111e-015
rfoot -3.08803 -20.9824
rtoes -5.97151
lfemur -8.55366 -20.418 -11.7773
ltibia 15.0458
lfoot -11.2732 21.1121
ltoes -30.8507
